HIERARCHY
ROOT Hips
{
  OFFSET 28.3279 93.5426 -252.899
  CHANNELS 6 Xposition Yposition Zposition Zrotation Xrotation Yrotation
  JOINT ToSpine
  {
    OFFSET -0.0105055 1.38907 -7.13956
    CHANNELS 3 Zrotation Xrotation Yrotation
    JOINT Spine
    {
      OFFSET 0.0105055 10 1
      CHANNELS 3 Zrotation Xrotation Yrotation
      JOINT Spine1
      {
        OFFSET 0 12 1.60637
        CHANNELS 3 Zrotation Xrotation Yrotation
        JOINT Neck
        {
          OFFSET 0 27 2.26658
          CHANNELS 3 Zrotation Xrotation Yrotation
          JOINT Head
          {
            OFFSET 0 9 2.12705
            CHANNELS 3 Zrotation Xrotation Yrotation
            End Site
            {
              OFFSET 0 11 2
            }
          }
        }
        JOINT LeftShoulder
        {
          OFFSET 8 19.6109 2.86452
          CHANNELS 3 Zrotation Xrotation Yrotation
          JOINT LeftArm
          {
            OFFSET 12 1 0.681055
            CHANNELS 3 Zrotation Xrotation Yrotation
            JOINT LeftForeArm
            {
              OFFSET 19 0 -1.52608
              CHANNELS 3 Zrotation Xrotation Yrotation
              JOINT LeftHand
              {
                OFFSET 23 0 0
                CHANNELS 3 Zrotation Xrotation Yrotation
                End Site
                {
                  OFFSET 10 0 0
                }
              }
            }
          }
        }
        JOINT RightShoulder
        {
          OFFSET -8 19.6109 2.86452
          CHANNELS 3 Zrotation Xrotation Yrotation
          JOINT RightArm
          {
            OFFSET -12 1 0.681055
            CHANNELS 3 Zrotation Xrotation Yrotation
            JOINT RightForeArm
            {
              OFFSET -19 0 -1.52608
              CHANNELS 3 Zrotation Xrotation Yrotation
              JOINT RightHand
              {
                OFFSET -23 0 0
                CHANNELS 3 Zrotation Xrotation Yrotation
                End Site
                {
                  OFFSET -10 0 0
                }
              }
            }
          }
        }
      }
    }
  }
  JOINT LeftUpLeg
  {
    OFFSET 9 -7.17245 0
    CHANNELS 3 Zrotation Xrotation Yrotation
    JOINT LeftLeg
    {
      OFFSET 0 -44.1113 0
      CHANNELS 3 Zrotation Xrotation Yrotation
      JOINT LeftFoot
      {
        OFFSET 0 -36.1829 0
        CHANNELS 3 Zrotation Xrotation Yrotation
        JOINT LeftToeBase
        {
          OFFSET 0 -4.84184 13
          CHANNELS 3 Zrotation Xrotation Yrotation
          End Site
          {
            OFFSET 0 1 6
          }
        }
      }
    }
  }
  JOINT RightUpLeg
  {
    OFFSET -9 -7.17245 0
    CHANNELS 3 Zrotation Xrotation Yrotation
    JOINT RightLeg
    {
      OFFSET 0 -44.0551 0
      CHANNELS 3 Zrotation Xrotation Yrotation
      JOINT RightFoot
      {
        OFFSET 0 -36.1469 0
        CHANNELS 3 Zrotation Xrotation Yrotation
        JOINT RightToeBase
        {
          OFFSET 0 -4.92256 13
          CHANNELS 3 Zrotation Xrotation Yrotation
          End Site
          {
            OFFSET 0 1 6
          }
        }
      }
    }
  }
}
MOTION
Frames:	19
Frame Time:	0.0333333
28.3279 93.5426 -252.899 -17.3864 0.360012 39.2507 0 0 0 -6.40655 -13.6701 -27.6784 32.6261 32.7515 -39.6032 15.5355 -29.5431 12.0872 -3.4115 15.7039 12.3432 -0.722771 0.947593 -6.89955 -28.1431 1.20623 -56.0631 20.8501 -7.57422 -109.09 -9.62726 0.691451 -8.19694 7.69151 2.85092 15.0229 62.0379 12.3245 -54.1381 -10.4442 0.417265 87.7375 8.78369 0.721344 9.37135 36.7416 12.5807 12.3996 2.55615 8.56444 -63.2619 12.1798 9.67824 -1.03502 1.84139 -43.5563 -8.0274 -1.74802 -37.7755 -32.725 -4.06406e-007 62.72 -12.7557 -26.2418 -22.6219 -5.33868 3.80458 -14.1819 -4.44185 
28.2799 94.8481 -245.053 -15.8591 5.2072 29.4424 0 0 0 -3.27929 -14.5276 -23.5932 23.3214 27.0052 -31.7329 14.5383 -31.2742 13.9358 -4.04385 18.4933 13.8874 -0.055623 0.88356 -6.86646 -27.8186 3.50025 -53.5129 20.9172 -7.41022 -108.647 -10.2677 0.720371 -8.00515 7.42365 3.01669 16.386 59.7635 9.58429 -54.9221 -9.92989 0.224072 88.7203 8.86797 0.739 9.50852 31.0379 18.3597 14.8041 0.787348 8.00945 -58.2935 11.4368 17.0021 -1.71503 1.41446 -18.0301 -2.31062 0.680711 -41.5053 -22.7375 -5.3053e-007 49.86 -8.38216 -27.9676 -16.7417 -4.19718 4.19478 -15.8677 -4.72741 
28.7121 94.186 -235.846 -10.9799 8.47588 12.7827 0 0 0 3.35433 -7.41083 -15.5968 11.8006 14.8284 -19.2547 11.7631 -30.4509 14.7816 -2.56199 17.7758 14.1528 -3.19936 1.18371 -6.97296 -26.0306 9.15789 -50.5212 22.6474 -6.80373 -105.851 -8.33979 0.55414 -7.58956 9.57744 3.5047 16.9644 56.8665 7.38926 -52.2572 -9.2785 0.321124 88.0352 7.5845 0.540957 8.1475 16.9016 25.7604 8.72426 2.04539 14.8854 -39.8364 13.8397 13.9506 -1.7014 1.65643 -22.0398 -3.10508 6.68053 -43.2964 -4.5833 -1.38813e-007 38.3358 -2.79839 -25.6284 -13.5627 -3.09863 3.73913 -13.9017 -5.06969 
29.0709 92.3452 -227.262 -5.34701 9.55311 -0.458777 0 0 0 4.57633 1.35488 -9.67427 6.21561 3.3842 -10.4428 7.96588 -29.6892 14.2555 -1.12065 16.3327 13.1853 -11.5166 2.0538 -7.45193 -22.8623 15.0657 -45.4548 23.1327 -5.12806 -101.817 -12.7795 0.810558 -7.22852 14.6518 4.30413 16.29 51.4826 4.38352 -45.8121 -12.8516 1.00875 85.5874 5.95838 0.452003 8.66856 3.29563 23.6023 7.32193 -4.4382e-007 33.2246 -25.445 12.1034 6.79976 -0.721723 1.73596 -23.9838 -2.81616 10.1498 -44.3333 7.99332 -5.33337e-008 36.5658 1.69599 -25.7074 -12.1961 -2.79291 3.61875 -13.3484 -6.10946 
28.9086 91.7062 -218.366 -2.85587 8.21373 -5.36863 0 0 0 3.68523 5.96998 -6.27833 5.43082 -0.75125 -6.76235 3.73403 -29.4474 12.1704 -0.393288 15.2529 10.9995 -19.2603 2.74417 -7.1102 -22.6637 21.1271 -40.1181 23.5492 -2.8045 -96.4054 -13.402 0.799657 -6.79827 19.2389 4.77227 14.8697 46.7329 -0.485291 -37.2584 -18.6266 1.7079 84.9467 5.24631 0.406313 8.85101 -0.192235 17.3077 11.5507 1.03058e-006 53.3324 -20.3687 15.4234 8.88524 -1.20555 1.79718 -25.1382 -3.15353 10.151 -42.0978 11.154 -2.55597e-007 40.6322 4.00447 -22.7018 -4.76504 -0.95708 4.29426 -16.796 -9.01394 
28.2833 90.5956 -209.179 -2.8301 7.41157 -5.76126 0 0 0 4.92448 7.01674 -4.53366 4.06476 -3.23399 -4.9784 -1.13941 -24.9488 10.7442 1.07524 11.1298 9.25701 -25.8519 3.01327 -5.88816 -27.2194 27.2481 -30.3139 21.3607 0.833468 -87.87 -12.1684 0.625756 -5.8656 21.4761 5.1602 14.8726 46.2627 -5.48653 -28.9004 -15.9617 1.30143 85.4598 2.92583 0.16507 6.45679 2.96095 8.89489 13.2375 -2.26826e-006 72.5181 -10.8057 19.4728 5.98249 -1.02742 1.96992 -28.4834 -2.0105 9.65239 -39.9898 9.33152 1.5968e-007 50.8483 2.9869 -22.4735 -9.9194 -1.97544 3.77535 -14.0815 -7.81046 
27.9494 89.0602 -201.098 -3.56078 6.894 -6.10129 0 0 0 9.16436 8.86292 -2.95368 -1.02481 -5.81339 -2.57153 -2.70876 -21.5989 8.86 0.722296 7.41671 7.61961 -28.5483 3.13313 -5.52628 -37.8284 25.6069 -13.9169 28.8728 2.96297 -84.6446 -14.0875 0.722312 -5.84088 23.611 5.49928 14.7607 47.4285 -9.74245 -17.5125 -12.2135 0.729724 86.6327 3.25276 0.189542 6.66804 6.58082 -2.87803 13.7794 180 89.6937 -179.966 22.7811 -3.34569 0.674219 1.97107 -28.9165 -3.15799 9.27896 -36.5947 6.61203 1.45078e-007 58.5339 2.34217 -24.9534 -20.1724 -4.50788 3.33739 -12.1775 -4.3997 
27.735 88.4752 -193.22 -3.5665 6.04901 -6.7859 0 0 0 10.6058 9.82884 -1.08358 -4.18264 -4.37069 -0.219632 -0.621443 -22.9839 7.23851 -1.03255 8.50922 6.82733 -27.5751 2.99453 -5.37023 -47.2934 18.4459 7.20497 29.3656 -0.170295 -90.3026 -13.9949 0.766137 -6.23589 25.2605 5.76241 14.6791 46.6082 -9.27634 -1.00015 -8.47451 0.363045 87.5649 2.34229 0.145362 7.10145 8.46005 -16.4387 13.1369 180 78.62 -175.554 27.3421 -9.8868 2.41048 1.81581 -24.4352 -5.35404 7.92922 -29.952 3.80816 7.15892e-008 59.8623 1.54069 -33.5296 -24.5429 -7.49794 4.67969 -18.3058 -6.78066 
27.3118 88.1057 -184.697 -2.95537 5.65534 -8.17889 0 0 0 8.77417 10.248 1.92827 -3.96913 -3.70576 2.70267 -0.698578 -21.3753 4.92836 -1.12995 7.48885 4.75574 -28.588 2.53598 -3.8017 -48.1143 13.9952 25.6299 23.214 -3.1862 -97.384 -15.3816 0.904324 -6.68915 23.6555 5.46605 14.6268 44.8861 -6.5989 13.1176 -7.84311 0.108868 89.2097 1.33156 0.07407 6.36745 9.93468 -29.4501 13.9998 -180 76.3413 -174.448 31.7526 -12.9515 3.69802 1.74125 -24.6404 -1.55776 6.76204 -22.0419 3.84776 -1.17986e-008 58.3313 -0.491715 -36.6621 -30.6284 -10.3682 4.77766 -18.7084 -6.53942 
27.3105 89.2696 -175.356 -2.55609 4.639 -8.45904 0 0 0 10.9038 11.5127 4.11058 -8.4923 -4.45153 5.95601 0.796954 -19.6711 1.58682 -1.43538 7.81899 1.96775 -24.5288 2.00868 -3.02205 -49.5242 13.9745 39.5012 26.3591 -6.14441 -102.189 -13.7676 0.784062 -6.48768 20.6783 4.8924 14.4067 45.0566 -5.31973 20.2933 -9.72314 -0.526394 93.0691 0.695723 0.0381801 6.28222 9.51843 -39.1475 13.7076 180 83.7994 -171.815 30.2681 -15.5794 4.23781 1.72744 -23.7998 -2.8273 4.19986 -11.5206 1.97637 1.90264e-008 52.1496 2.62368 -35.8011 -29.0726 -9.57493 5.2732 -21.688 -8.71024 
27.2588 91.3467 -164.452 -2.12454 2.56893 -6.642 0 0 0 11.4036 11.1755 6.85283 -10.4971 -2.93672 9.22437 2.1347 -19.4913 -2.71839 -2.24232 9.39337 -1.55535 -20.6378 1.79174 -3.1081 -49.5938 15.5801 47.359 25.3071 -7.59603 -105.619 -13.904 0.936537 -7.66938 14.476 3.54107 12.9517 48.8111 -5.42545 22.3699 -12.7967 -1.9794 98.6467 1.81658 0.0896631 5.65097 5.79568 -42.6375 11.0926 -3.99544e-007 81.2245 8.52743 29.6407 -12.8814 3.4217 1.71839 -24.1883 -1.73262 1.21832 1.99012 -2.17611 -3.82264e-007 41.2112 7.88953 -28.4026 -20.6243 -5.27261 7.24076 -28.7076 -5.05213 
27.1525 93.5496 -152.553 -1.82236 0.533649 -3.29261 0 0 0 11.6297 9.27062 8.73209 -11.7634 -1.05205 11.2953 4.48889 -18.2103 -6.81459 -2.52316 11.5334 -4.84331 -16.2836 1.75263 -4.09501 -51.6021 15.4132 52.7602 25.671 -9.09797 -108.21 -11.8032 0.843038 -8.14208 11.0369 3.18967 13.8366 48.7859 -6.13761 19.2145 -7.43737 -1.62822 102.28 1.99691 0.113578 6.50994 0.662818 -41.0904 7.8952 -2.16303e-008 61.3653 4.05127 27.2984 -7.34887 1.78686 1.70117 -23.4669 -2.50573 -1.11835 16.5298 -8.22008 0.00412986 26.8539 17.7372 -13.173 -7.1546 -0.827171 6.89929 -25.3458 -0.767171 
27.0631 94.6167 -139.986 -1.79497 -0.243653 -0.527771 0 0 0 13.6672 5.12883 11.2455 -15.2142 2.10261 14.3577 8.41727 -19.9531 -10.8281 -3.06715 15.5491 -7.74823 -8.12674 1.36488 -5.20357 -55.5625 15.1231 53.9221 24.5655 -10.4452 -111.634 -12.6583 1.11464 -10.0241 6.99656 2.34994 12.4494 50.8757 -2.70153 17.2032 2.59162 0.726328 105.646 -0.813425 -0.0568859 8.00066 -2.34675 -37.1755 9.61415 -1.13595e-007 39.8598 -4.30794 21.0859 -0.49111 0.0914032 1.69851 -22.8353 -3.27489 -1.37144 27.6188 -11.5924 0.996721 17.0938 22.5628 -13.1951 6.50069 0.75267 4.12458 -15.7762 -7.48897 
26.9114 94.1674 -128.418 -3.4795 -0.13152 -0.652149 0 0 0 16.0603 0.559963 14.3484 -15.6791 5.90638 17.0425 8.41613 -18.2883 -12.3571 -1.56041 14.0338 -9.64312 -5.7087 1.15399 -5.03465 -55.9768 15.3389 54.4042 23.938 -12.5671 -116.111 -13.0632 1.19127 -10.3765 2.38952 1.75358 13.0003 51.8993 -2.50169 16.2603 -6.09741 -2.15909 109.427 2.83737 0.140016 5.64904 -1.41586 -33.6822 14.6587 -2.65145 20.5045 -11.0652 17.5034 8.4716 -1.30648 1.66797 -23.3792 -1.63524 0.00278042 31.9578 -11.4466 -0.437751 20.4346 15.531 -14.7496 -1.40079 -0.181314 4.26967 -16.4799 -7.50914 
27.3042 93.1958 -118.059 -6.74642 -1.49384 -2.15912 0 0 0 21.5696 -0.189135 15.5277 -17.9526 7.5436 18.2807 9.95056 -14.7876 -12.0471 -3.97495 12.5121 -8.22296 -6.79888 1.06576 -3.85641 -55.1544 12.4059 56.1539 25.6608 -15.9568 -119.779 -12.6918 1.12664 -10.1046 2.92365 1.89377 13.5495 50.2593 2.46887 16.2062 -4.83216 -1.71368 109.481 3.74728 0.214074 6.53693 1.17866 -30.6595 4.58051 -5.92115 10.1967 1.95045 11.3422 9.25771 -0.921316 1.43145 -18.8321 -1.99756 0.290172 35.3883 -10.9602 -0.0477721 27.2185 7.88392 -17.9764 -7.22236 -1.14386 4.04385 -15.3626 -7.15243 
27.9016 92.3486 -107.95 -10.1882 -3.17548 -2.68931 0 0 0 25.1532 0.0968001 15.4867 -17.391 7.70918 18.2462 9.96406 -10.8303 -11.4336 -4.26461 11.7571 -7.36904 -10.2631 1.20209 -3.33349 -55.3183 9.31039 56.9711 25.9698 -17.4601 -121.633 -12.6152 1.18625 -10.7011 5.20263 2.06167 12.2073 50.6013 7.6796 13.6258 -3.87958 -1.35972 109.286 6.5837 0.374976 6.51241 3.33276 -28.1583 5.80756 -5.06811 11.2085 1.12678 12.9125 9.33916 -1.05915 1.29776 -13.5371 -3.17741 0.39993 34.8305 -11.3256 -6.74567e-008 40.4583 -1.51803 -20.4432 -9.94948 -1.79844 4.15054 -15.9392 -7.8924 
28.3509 91.8588 -98.5534 -10.1013 -5.70848 -2.55105 0 0 0 22.7204 1.38291 13.2477 -15.8843 7.83481 16.5167 10.3493 -7.13372 -8.92604 -2.7518 10.6106 -5.21229 -12.0475 1.10291 -2.24463 -57.9341 4.44894 55.2323 26.2773 -17.1033 -120.78 -13.1617 1.28407 -11.0961 8.87042 2.86078 13.9033 51.9711 10.687 8.08391 -2.49073 -0.803515 107.869 7.035 0.386459 6.28075 3.0558 -26.5667 14.1927 -4.99795 20.9004 -9.57848 14.9239 19.3182 -2.55406 1.68953 -10.2239 -6.64405 -2.67064 31.5199 -11.1316 3.03332e-007 55.986 -11.9696 -30.3749 -8.66252 -2.35567 4.05461 -15.5643 -9.17223 
28.9349 90.3669 -89.3221 -8.20033 -7.64496 -0.579183 0 0 0 16.8529 2.84942 10.5047 -12.4327 5.50929 13.4695 11.1569 -3.3873 -6.8011 -3.90044 6.3614 -2.52277 -19.01 1.4258 -2.07211 -55.2106 1.5009 49.6677 25.7569 -14.7795 -117.866 -12.1377 0.971289 -9.11649 13.224 3.55345 13.9246 52.429 10.846 1.61203 -8.2553 -2.30882 105.518 9.61948 0.395147 4.6935 -0.0780844 -28.8724 18.8017 3.3872e-007 44.0191 -15.2047 22.7633 -2.23196 0.449352 0.530484 -0.0129324 -2.21702 -6.8225 26.147 -11.5728 -4.61631e-006 70.8316 -21.0422 -33.8868 -12.261 -3.74832 4.00328 -15.2708 -8.81587 
29.5689 89.4626 -81.9158 -1.85422 -9.21216 4.23532 0 0 0 6.47585 6.03426 7.06074 -9.62566 4.03775 9.59957 11.5166 -6.78183 -4.01577 -2.8624 8.81525 -0.264121 -29.4387 1.44288 -0.558625 -44.7952 4.55439 32.8725 21.1672 -9.70779 -113.532 -12.1456 0.62128 -5.8347 21.9578 5.15438 14.5631 50.1433 8.39912 -6.74476 -9.40979 -2.03871 102.115 6.58184 0.290679 5.05197 -8.91816 -23.7072 13.5641 -6.30119e-007 48.4999 -12.7085 26.6456 -6.77505 1.60617 1.23286 -7.89352 -4.13168 -13.9916 16.9883 -10.164 -1.31847e-005 86.3936 -19.5902 -32.8942 -16.5619 -4.92052 4.16878 -16.2115 -9.60441 
